if (_typeface_js && _typeface_js.loadFace) _typeface_js.loadFace({"glyphs":{"0":{"ha":803,"x_min":32,"x_max":711,"o":"m 110 943 l 711 943 l 711 61 q 647 28 700 28 l 110 28 q 32 114 32 28 l 32 894 q 110 943 56 943 m 213 786 l 213 188 l 531 188 l 531 786 l 213 786 z "},"1":{"ha":249,"x_min":31,"x_max":171,"o":"m 171 28 l 31 28 l 31 944 l 171 1065 l 171 28 z "},"2":{"ha":803,"x_min":28,"x_max":722,"o":"m 57 942 l 722 943 l 722 515 q 597 408 722 408 l 218 408 l 218 207 l 481 207 l 678 28 l 28 28 l 28 447 q 106 543 28 543 l 532 543 l 532 753 l 157 753 l 57 942 z "},"3":{"ha":803,"x_min":19,"x_max":711,"o":"m 33 944 l 560 944 q 711 858 711 944 l 711 585 l 603 471 l 711 368 l 711 97 q 607 22 711 22 l 19 22 l 111 206 l 517 206 l 517 408 l 407 408 l 304 546 l 517 546 l 517 750 l 135 750 l 33 944 z "},"4":{"ha":803,"x_min":40,"x_max":718,"o":"m 40 929 l 232 929 l 232 608 l 428 494 l 428 239 l 40 474 l 40 929 m 525 943 l 718 943 l 718 -92 l 525 81 l 525 943 z "},"5":{"ha":803,"x_min":32,"x_max":722,"o":"m 68 943 l 722 943 l 722 774 l 225 774 l 225 649 l 722 411 l 722 33 l 32 33 l 32 447 l 210 346 l 210 189 l 529 189 l 529 326 l 32 590 l 32 907 q 68 943 38 931 z "},"6":{"ha":803,"x_min":32,"x_max":722,"o":"m 68 943 l 722 943 l 722 774 l 225 774 l 225 649 l 722 411 l 722 33 l 32 33 l 32 642 l 210 540 l 210 189 l 529 189 l 529 326 l 32 590 l 32 907 q 68 943 38 931 z "},"7":{"ha":781,"x_min":28,"x_max":656,"o":"m 169 933 l 656 933 l 656 571 l 421 439 l 421 29 l 254 29 l 254 471 l 476 589 l 476 779 l 28 779 l 169 933 z "},"8":{"ha":803,"x_min":28,"x_max":718,"o":"m 521 411 l 213 411 l 213 249 l 253 211 l 471 211 l 621 31 q 607 33 638 36 l 28 33 l 28 364 l 117 486 l 28 585 l 28 829 q 149 935 28 935 l 718 935 l 718 596 l 629 497 l 718 375 l 718 128 q 683 56 718 78 q 717 40 494 -71 l 521 269 l 521 411 m 213 746 l 213 583 l 253 546 l 521 546 l 521 746 l 213 746 z "},"9":{"ha":803,"x_min":32,"x_max":722,"o":"m 686 33 l 32 33 l 32 203 l 529 203 l 529 328 l 32 565 l 32 943 l 722 943 l 722 335 l 544 436 l 544 788 l 225 788 l 225 650 l 722 386 l 722 69 q 686 33 717 46 z "}," ":{"ha":344,"x_min":0,"x_max":0,"o":""},"!":{"ha":285,"x_min":31,"x_max":197,"o":"m 31 944 l 197 944 l 197 374 l 31 251 l 31 944 m 31 163 l 197 163 l 197 14 l 31 -122 l 31 163 z "},"\"":{"ha":538,"x_min":111,"x_max":369,"o":"m 111 944 l 172 944 l 172 801 l 111 749 l 111 944 m 308 944 l 369 944 l 369 801 l 308 749 l 308 944 z "},"#":{"ha":1146,"x_min":19,"x_max":1031,"o":"m 1031 994 l 1031 854 l 753 715 l 753 146 l 607 146 l 607 644 l 443 550 l 443 146 l 313 146 l 313 493 l 150 396 l 150 292 l 19 78 l 19 947 l 150 947 l 150 542 l 1031 994 m 1031 739 l 1031 -24 l 885 -183 l 885 668 l 1031 739 z "},"$":{"ha":1146,"x_min":19,"x_max":1031,"o":"m 19 -210 l 19 -69 l 297 69 l 297 639 l 443 639 l 443 140 l 607 235 l 607 639 l 738 639 l 738 292 l 900 389 l 900 493 l 1031 707 l 1031 -162 l 900 -162 l 900 243 l 19 -210 m 19 46 l 19 808 l 165 968 l 165 117 l 19 46 z "},"%":{"ha":1146,"x_min":19,"x_max":1031,"o":"m 150 243 l 150 -162 l 19 -162 l 19 707 l 150 493 l 150 389 l 313 292 l 313 639 l 443 639 l 443 235 l 607 140 l 607 639 l 753 639 l 753 69 l 1031 -69 l 1031 -210 l 150 243 m 885 117 l 885 968 l 1031 808 l 1031 46 l 885 117 z "},"&":{"ha":1146,"x_min":19,"x_max":1031,"o":"m 900 542 l 900 947 l 1031 947 l 1031 78 l 900 292 l 900 396 l 738 493 l 738 146 l 607 146 l 607 550 l 443 644 l 443 146 l 297 146 l 297 715 l 19 854 l 19 994 l 900 542 m 165 668 l 165 -183 l 19 -24 l 19 739 l 165 668 z "},"'":{"ha":308,"x_min":100,"x_max":161,"o":"m 100 944 l 161 944 l 161 801 l 100 749 l 100 944 z "},"(":{"ha":300,"x_min":32,"x_max":326,"o":"m 321 1136 q 49 567 65 981 q 324 -219 32 153 l 324 96 q 233 288 246 238 q 213 413 219 338 q 214 577 206 488 q 231 719 222 667 q 263 814 239 772 q 326 896 286 856 l 326 1111 l 326 1111 l 326 1111 l 326 1125 l 321 1125 l 321 1136 z "},")":{"ha":300,"x_min":-8,"x_max":286,"o":"m 25 1119 l 25 1125 l 19 1125 l 19 1111 l 19 1111 l 19 1111 l -8 896 q 56 814 32 856 q 88 719 79 772 q 104 577 96 667 q 106 413 113 488 q 85 288 99 338 q -6 96 72 238 l -6 -219 q 269 567 286 153 q 25 1119 253 981 z "},"*":{"ha":546,"x_min":29,"x_max":454,"o":"m 275 903 l 275 725 l 413 892 l 410 893 l 275 733 l 454 733 l 454 754 l 299 754 l 299 903 l 275 903 m 235 878 l 235 690 l 422 690 l 422 704 l 235 704 l 235 508 l 249 508 l 249 704 l 69 704 l 69 690 l 249 690 l 249 878 l 235 878 m 185 640 l 185 475 l 208 475 l 208 667 l 56 515 l 57 514 l 208 661 l 46 661 l 46 640 l 185 640 m 454 640 l 454 661 l 271 661 l 418 504 l 418 504 l 275 664 l 275 492 l 299 492 l 299 640 l 454 640 m 299 447 l 275 447 l 275 464 l 299 464 l 299 447 m 185 903 l 185 754 l 29 754 l 29 733 l 208 733 l 74 893 l 71 892 l 208 725 l 208 903 l 185 903 z "},"+":{"ha":589,"x_min":21,"x_max":492,"o":"m 251 743 l 292 700 l 269 700 l 269 522 l 442 522 l 442 544 l 492 494 l 442 449 l 442 478 l 269 478 l 269 306 l 286 306 l 249 268 l 213 306 l 231 306 l 231 478 l 64 478 l 64 454 l 21 494 l 58 533 l 58 522 l 231 522 l 231 700 l 210 700 l 251 743 z "},",":{"ha":218,"x_min":38,"x_max":122,"o":"m 38 113 l 122 113 l 122 14 l 38 -44 l 38 113 z "},"-":{"ha":511,"x_min":46,"x_max":397,"o":"m 46 499 l 397 499 l 397 439 l 46 439 l 46 499 z "},".":{"ha":218,"x_min":38,"x_max":122,"o":"m 38 113 l 122 113 l 122 28 l 38 28 l 38 113 z "},"/":{"ha":869,"x_min":3,"x_max":774,"o":"m 57 -128 l 3 6 l 642 1099 l 774 1099 l 57 -128 z "},":":{"ha":218,"x_min":38,"x_max":122,"o":"m 38 113 l 122 113 l 122 28 l 38 28 l 38 113 m 38 515 l 122 515 l 122 431 l 38 431 l 38 515 z "},";":{"ha":218,"x_min":38,"x_max":122,"o":"m 38 113 l 122 113 l 122 11 l 38 -72 l 38 113 m 38 515 l 122 515 l 122 431 l 38 431 l 38 515 z "},"=":{"ha":635,"x_min":64,"x_max":529,"o":"m 64 601 l 529 601 l 529 511 l 64 511 l 64 601 m 64 358 l 529 358 l 529 268 l 64 268 l 64 358 z "},"?":{"ha":575,"x_min":39,"x_max":490,"o":"m 74 821 l 174 943 l 422 943 q 490 858 490 943 l 490 500 q 397 415 490 415 l 144 415 l 144 326 l 40 265 l 40 561 l 378 561 l 378 821 l 74 821 m 39 146 l 144 208 l 144 33 l 39 35 l 39 146 z "},"A":{"ha":803,"x_min":33,"x_max":726,"o":"m 33 943 l 667 943 q 724 850 726 926 l 724 28 l 535 28 l 535 492 l 222 332 l 222 -89 l 33 19 l 33 413 l 535 683 l 535 796 l 222 796 l 222 624 l 33 521 l 33 943 z "},"B":{"ha":813,"x_min":39,"x_max":721,"o":"m 39 943 l 635 943 q 721 883 697 943 l 721 611 l 564 492 l 721 400 l 721 28 l 329 28 l 329 189 l 538 189 l 538 389 l 222 510 l 222 22 l 39 -89 l 39 943 m 222 783 l 222 482 l 538 635 l 538 783 l 222 783 z "},"C":{"ha":811,"x_min":31,"x_max":732,"o":"m 706 944 q 728 854 732 944 l 728 613 l 532 613 l 532 789 l 215 789 l 215 194 l 550 194 l 408 28 l 97 28 q 31 118 43 28 l 31 944 l 706 944 z "},"D":{"ha":860,"x_min":54,"x_max":771,"o":"m 54 943 l 269 943 l 764 693 l 764 122 q 699 28 771 51 l 378 28 l 378 201 l 574 201 l 574 590 l 249 753 l 249 -92 l 54 17 l 54 943 z "},"E":{"ha":783,"x_min":22,"x_max":678,"o":"m 22 944 l 525 944 l 678 778 l 214 778 l 214 618 l 413 618 l 554 453 l 214 453 l 214 189 l 515 189 l 667 28 l 22 28 l 22 944 z "},"F":{"ha":833,"x_min":33,"x_max":738,"o":"m 33 944 l 738 944 l 654 804 l 204 804 l 204 528 l 429 528 l 485 388 l 204 388 l 204 15 l 33 -89 l 33 944 z "},"G":{"ha":803,"x_min":32,"x_max":739,"o":"m 711 63 q 647 29 700 29 l 110 29 q 32 115 32 29 l 32 896 q 110 944 56 944 l 739 944 l 492 786 l 213 786 l 213 188 l 531 188 l 531 490 l 333 490 l 481 631 l 711 631 l 711 63 z "},"H":{"ha":803,"x_min":29,"x_max":708,"o":"m 29 944 l 207 944 l 207 610 l 29 497 l 29 944 m 519 944 l 708 944 l 708 49 l 519 49 l 519 486 l 207 292 l 207 -97 l 29 24 l 29 383 l 519 685 l 519 944 z "},"I":{"ha":322,"x_min":36,"x_max":225,"o":"m 225 29 l 36 29 l 36 944 l 225 1075 l 225 29 z "},"J":{"ha":674,"x_min":39,"x_max":565,"o":"m 565 21 l 39 -101 l 101 115 l 372 181 l 372 943 l 565 943 l 565 21 z "},"K":{"ha":803,"x_min":32,"x_max":728,"o":"m 715 1010 l 715 608 l 500 483 l 728 332 l 728 33 l 497 33 l 497 308 l 239 476 l 239 46 l 32 -51 l 32 839 l 239 935 l 239 490 l 508 629 l 508 906 l 715 1010 z "},"L":{"ha":833,"x_min":28,"x_max":693,"o":"m 28 943 l 221 943 l 221 175 l 518 175 l 693 26 l 28 26 l 28 943 z "},"M":{"ha":1138,"x_min":39,"x_max":1018,"o":"m 39 931 l 960 931 q 1018 851 1018 917 l 1018 221 l 828 104 l 828 813 l 629 813 l 629 231 l 428 96 l 428 813 l 229 813 l 229 74 l 39 -50 l 39 931 z "},"N":{"ha":803,"x_min":36,"x_max":715,"o":"m 36 943 l 208 943 l 208 769 l 543 474 l 543 943 l 715 943 l 715 29 l 540 29 l 540 236 l 208 524 l 208 29 l 36 29 l 36 943 z "},"O":{"ha":942,"x_min":14,"x_max":811,"o":"m 14 435 l 75 435 l 75 871 q 131 944 75 917 l 811 944 l 811 125 q 729 36 793 36 l 400 36 l 217 225 l 211 218 l 603 218 l 603 774 l 294 774 l 294 435 l 343 435 l 178 265 l 178 265 l 14 435 z "},"P":{"ha":803,"x_min":31,"x_max":725,"o":"m 31 944 l 660 944 q 725 819 725 911 l 725 471 l 342 231 l 342 451 l 524 569 l 524 776 l 211 776 l 211 24 l 31 -93 l 31 944 z "},"Q":{"ha":864,"x_min":32,"x_max":763,"o":"m 531 324 l 531 724 l 711 906 l 711 93 l 763 28 q 710 -153 732 -79 l 567 29 l 110 29 q 32 115 32 29 l 32 896 q 110 944 56 944 l 635 944 l 479 786 l 213 786 l 213 188 l 440 188 l 332 326 l 450 425 l 531 324 z "},"R":{"ha":803,"x_min":31,"x_max":725,"o":"m 211 385 l 211 24 l 31 -93 l 31 899 l 211 726 l 211 590 l 381 476 l 524 569 l 524 776 l 285 776 l 104 944 l 660 944 q 725 819 725 911 l 725 472 l 540 371 l 724 249 l 724 3 l 565 -96 l 565 146 l 211 385 z "},"S":{"ha":804,"x_min":28,"x_max":725,"o":"m 99 943 l 547 943 l 683 768 l 211 768 l 211 571 l 672 571 q 725 471 725 533 l 725 86 q 643 36 725 56 l 228 36 l 76 199 l 529 199 l 529 408 l 107 408 q 28 471 28 408 l 28 878 q 99 943 28 929 z "},"T":{"ha":914,"x_min":42,"x_max":794,"o":"m 42 944 l 658 944 l 794 775 l 496 775 l 496 50 l 310 -89 l 310 775 l 42 775 l 42 944 z "},"U":{"ha":803,"x_min":29,"x_max":722,"o":"m 219 933 l 219 211 l 521 211 l 521 914 l 722 806 l 722 85 q 658 26 699 26 l 29 26 l 29 1049 l 219 933 z "},"V":{"ha":803,"x_min":33,"x_max":718,"o":"m 33 343 l 33 932 l 221 932 l 221 438 l 519 236 l 519 933 l 718 1072 l 718 14 l 511 14 l 33 343 z "},"W":{"ha":1178,"x_min":26,"x_max":1093,"o":"m 457 14 l 26 307 l 26 992 l 193 856 l 193 394 l 467 213 l 467 844 l 639 965 l 639 210 l 921 397 l 921 863 l 1093 996 l 1093 313 l 653 14 l 457 14 z "},"X":{"ha":803,"x_min":31,"x_max":722,"o":"m 31 944 l 232 944 l 232 647 l 83 522 l 31 572 l 31 944 m 521 944 l 722 944 l 722 610 l 558 475 l 722 343 l 722 26 l 521 26 l 521 261 l 375 385 l 221 263 l 221 26 l 31 26 l 31 336 l 321 572 l 374 538 l 521 674 l 521 944 z "},"Y":{"ha":803,"x_min":28,"x_max":718,"o":"m 28 944 l 218 944 l 218 706 l 422 593 l 422 383 l 28 592 l 28 944 m 518 944 l 718 944 l 718 36 l 144 36 l 261 207 l 518 207 l 518 944 z "},"Z":{"ha":804,"x_min":29,"x_max":724,"o":"m 235 208 l 482 208 l 679 29 l 29 29 l 29 225 l 533 746 l 158 746 l 58 936 l 724 936 l 724 717 l 713 717 l 235 208 z "},"\\":{"ha":869,"x_min":3,"x_max":774,"o":"m 3 1099 l 135 1099 l 774 6 l 721 -128 l 3 1099 z "},"_":{"ha":754,"x_min":0,"x_max":699,"o":"m 0 -296 l 0 -283 l 699 -283 l 699 -296 l 0 -296 z "},"a":{"ha":803,"x_min":33,"x_max":726,"o":"m 33 943 l 667 943 q 724 850 726 926 l 724 28 l 535 28 l 535 492 l 222 332 l 222 -89 l 33 19 l 33 413 l 535 683 l 535 796 l 222 796 l 222 624 l 33 521 l 33 943 z "},"b":{"ha":813,"x_min":39,"x_max":721,"o":"m 39 943 l 635 943 q 721 883 697 943 l 721 611 l 564 492 l 721 400 l 721 28 l 329 28 l 329 189 l 538 189 l 538 389 l 222 510 l 222 22 l 39 -89 l 39 943 m 222 783 l 222 482 l 538 635 l 538 783 l 222 783 z "},"c":{"ha":803,"x_min":31,"x_max":728,"o":"m 31 944 l 651 944 q 728 840 711 944 l 728 601 l 532 601 l 532 778 l 215 778 l 215 183 l 550 183 l 408 17 l 97 17 q 31 107 43 17 l 31 944 z "},"d":{"ha":833,"x_min":28,"x_max":738,"o":"m 28 943 l 239 943 l 738 693 l 738 124 q 669 36 738 76 l 351 36 l 351 211 l 547 211 l 547 590 l 238 756 l 238 -128 l 28 56 l 28 943 z "},"e":{"ha":783,"x_min":22,"x_max":678,"o":"m 22 944 l 525 944 l 678 778 l 214 778 l 214 618 l 413 618 l 554 453 l 214 453 l 214 189 l 515 189 l 667 28 l 22 28 l 22 944 z "},"f":{"ha":833,"x_min":33,"x_max":738,"o":"m 33 944 l 738 944 l 654 804 l 204 804 l 204 528 l 429 528 l 485 388 l 204 388 l 204 15 l 33 -89 l 33 944 z "},"g":{"ha":803,"x_min":32,"x_max":739,"o":"m 711 63 q 647 29 700 29 l 110 29 q 32 115 32 29 l 32 896 q 110 944 56 944 l 739 944 l 492 786 l 213 786 l 213 188 l 531 188 l 531 490 l 333 490 l 481 631 l 711 631 l 711 63 z "},"h":{"ha":803,"x_min":29,"x_max":708,"o":"m 29 944 l 207 944 l 207 610 l 29 497 l 29 944 m 519 486 l 207 292 l 207 49 l 29 49 l 29 383 l 519 685 l 519 944 l 708 944 l 708 -99 l 519 24 l 519 486 z "},"i":{"ha":322,"x_min":36,"x_max":225,"o":"m 225 29 l 36 29 l 36 944 l 225 1075 l 225 29 z "},"j":{"ha":674,"x_min":39,"x_max":565,"o":"m 565 21 l 39 -101 l 101 115 l 372 181 l 372 943 l 565 943 l 565 21 z "},"k":{"ha":803,"x_min":32,"x_max":728,"o":"m 715 1010 l 715 608 l 500 483 l 728 332 l 728 33 l 497 33 l 497 308 l 239 476 l 239 46 l 32 -51 l 32 839 l 239 935 l 239 490 l 508 629 l 508 906 l 715 1010 z "},"l":{"ha":833,"x_min":28,"x_max":693,"o":"m 28 943 l 221 943 l 221 175 l 518 175 l 693 26 l 28 26 l 28 943 z "},"m":{"ha":1138,"x_min":39,"x_max":1018,"o":"m 39 931 l 960 931 q 1018 851 1018 917 l 1018 221 l 828 104 l 828 813 l 629 813 l 629 231 l 428 96 l 428 813 l 229 813 l 229 74 l 39 -50 l 39 931 z "},"n":{"ha":803,"x_min":36,"x_max":715,"o":"m 36 943 l 208 943 l 208 769 l 543 474 l 543 943 l 715 943 l 715 29 l 540 29 l 540 236 l 208 524 l 208 29 l 36 29 l 36 943 z "},"o":{"ha":803,"x_min":32,"x_max":711,"o":"m 110 944 l 711 944 l 711 63 q 647 29 700 29 l 110 29 q 32 115 32 29 l 32 896 q 110 944 56 944 m 213 786 l 213 188 l 531 188 l 531 786 l 213 786 z "},"p":{"ha":803,"x_min":31,"x_max":725,"o":"m 31 944 l 660 944 q 725 819 725 911 l 725 471 l 342 231 l 342 451 l 524 569 l 524 776 l 211 776 l 211 24 l 31 -93 l 31 944 z "},"q":{"ha":864,"x_min":32,"x_max":763,"o":"m 531 324 l 531 724 l 711 906 l 711 93 l 763 28 q 710 -153 732 -79 l 567 29 l 110 29 q 32 115 32 29 l 32 896 q 110 944 56 944 l 635 944 l 479 786 l 213 786 l 213 188 l 440 188 l 332 326 l 450 425 l 531 324 z "},"r":{"ha":803,"x_min":31,"x_max":725,"o":"m 211 385 l 211 24 l 31 -93 l 31 899 l 211 726 l 211 590 l 381 476 l 524 569 l 524 776 l 285 776 l 104 944 l 660 944 q 725 819 725 911 l 725 472 l 540 371 l 724 249 l 724 3 l 565 -96 l 565 146 l 211 385 z "},"s":{"ha":804,"x_min":28,"x_max":725,"o":"m 99 943 l 547 943 l 683 768 l 211 768 l 211 571 l 672 571 q 725 471 725 533 l 725 86 q 643 36 725 56 l 228 36 l 76 199 l 529 199 l 529 408 l 107 408 q 28 471 28 408 l 28 878 q 99 943 28 929 z "},"t":{"ha":914,"x_min":42,"x_max":794,"o":"m 42 944 l 658 944 l 794 775 l 496 775 l 496 50 l 310 -89 l 310 775 l 42 775 l 42 944 z "},"u":{"ha":803,"x_min":29,"x_max":722,"o":"m 219 933 l 219 211 l 521 211 l 521 914 l 722 806 l 722 85 q 658 26 699 26 l 29 26 l 29 1049 l 219 933 z "},"v":{"ha":803,"x_min":33,"x_max":718,"o":"m 33 343 l 33 932 l 221 932 l 221 438 l 519 236 l 519 933 l 718 1072 l 718 14 l 511 14 l 33 343 z "},"w":{"ha":1178,"x_min":26,"x_max":1093,"o":"m 457 14 l 26 307 l 26 992 l 193 856 l 193 394 l 467 213 l 467 844 l 639 965 l 639 210 l 921 397 l 921 863 l 1093 996 l 1093 313 l 653 14 l 457 14 z "},"x":{"ha":803,"x_min":31,"x_max":722,"o":"m 31 944 l 232 944 l 232 647 l 83 522 l 31 572 l 31 944 m 521 944 l 722 944 l 722 610 l 558 475 l 722 343 l 722 26 l 521 26 l 521 261 l 375 385 l 221 263 l 221 26 l 31 26 l 31 336 l 321 572 l 374 538 l 521 674 l 521 944 z "},"y":{"ha":803,"x_min":28,"x_max":718,"o":"m 28 944 l 218 944 l 218 706 l 422 593 l 422 383 l 28 592 l 28 944 m 518 944 l 718 944 l 718 36 l 144 36 l 261 207 l 518 207 l 518 944 z "},"z":{"ha":804,"x_min":29,"x_max":724,"o":"m 235 208 l 482 208 l 679 29 l 29 29 l 29 225 l 533 746 l 158 746 l 58 936 l 724 936 l 724 717 l 713 717 l 235 208 z "},"|":{"ha":261,"x_min":31,"x_max":171,"o":"m 31 1099 l 171 1099 l 171 19 l 31 -122 l 31 1099 z "},"А":{"ha":803,"x_min":33,"x_max":726,"o":"m 33 943 l 667 943 q 724 850 726 926 l 724 28 l 535 28 l 535 492 l 222 332 l 222 -89 l 33 19 l 33 413 l 535 683 l 535 796 l 222 796 l 222 624 l 33 521 l 33 943 z "},"Б":{"ha":797,"x_min":103,"x_max":778,"o":"m 103 944 l 593 944 l 743 776 l 357 776 l 357 721 l 778 485 l 778 58 l 393 58 l 393 228 l 583 228 l 583 393 l 297 561 l 297 13 l 103 -160 l 103 944 z "},"В":{"ha":813,"x_min":39,"x_max":721,"o":"m 39 943 l 635 943 q 721 883 697 943 l 721 611 l 564 492 l 721 400 l 721 28 l 329 28 l 329 189 l 538 189 l 538 389 l 222 510 l 222 22 l 39 -89 l 39 943 m 222 783 l 222 482 l 538 635 l 538 783 l 222 783 z "},"Г":{"ha":715,"x_min":26,"x_max":618,"o":"m 26 944 l 514 944 l 618 763 l 213 763 l 213 25 l 26 -131 l 26 944 z "},"Д":{"ha":819,"x_min":36,"x_max":728,"o":"m 544 944 l 728 944 l 728 -78 l 539 65 l 539 751 l 279 604 l 279 207 l 456 207 l 456 28 l 36 28 l 36 207 l 90 207 l 90 721 l 544 944 z "},"Е":{"ha":783,"x_min":22,"x_max":678,"o":"m 22 944 l 525 944 l 678 779 l 226 779 l 226 619 l 413 619 l 556 454 l 226 454 l 226 201 l 514 201 l 667 36 l 22 36 l 22 944 z "},"Ж":{"ha":1138,"x_min":64,"x_max":1074,"o":"m 900 842 l 1074 935 l 1074 567 l 883 460 l 1074 318 l 1074 33 l 900 33 l 900 265 l 657 453 l 657 72 l 483 -37 l 483 433 l 250 244 l 250 35 l 64 35 l 64 296 l 257 453 l 67 546 l 67 935 l 240 822 l 240 592 l 483 458 l 483 760 l 657 861 l 657 449 l 900 600 l 900 842 z "},"З":{"ha":803,"x_min":14,"x_max":701,"o":"m 139 944 l 551 944 q 701 860 701 944 l 701 589 l 596 475 l 701 375 l 701 106 q 599 32 701 32 l 14 32 l 106 213 l 507 213 l 507 392 l 335 479 l 507 586 l 507 774 l 32 774 l 139 944 z "},"И":{"ha":803,"x_min":36,"x_max":732,"o":"m 732 1058 l 732 65 l 472 65 l 472 186 l 36 -44 l 36 125 l 544 432 l 544 929 l 732 1058 m 226 904 l 226 356 l 36 240 l 36 765 l 226 904 z "},"Й":{"ha":803,"x_min":36,"x_max":732,"o":"m 532 1338 l 532 1189 l 282 1017 l 282 1157 l 532 1338 m 226 904 l 226 356 l 36 240 l 36 765 l 226 904 m 732 1058 l 732 65 l 472 65 l 472 186 l 36 -44 l 36 125 l 544 432 l 544 929 l 732 1058 z "},"К":{"ha":803,"x_min":32,"x_max":728,"o":"m 715 1010 l 715 608 l 500 483 l 728 332 l 728 33 l 497 33 l 497 308 l 239 476 l 239 46 l 32 -51 l 32 839 l 239 935 l 239 490 l 508 629 l 508 906 l 715 1010 z "},"Л":{"ha":803,"x_min":33,"x_max":718,"o":"m 497 944 l 718 944 l 718 -114 l 519 25 l 519 722 l 221 521 l 221 26 l 33 26 l 33 615 l 497 944 z "},"М":{"ha":1138,"x_min":39,"x_max":1018,"o":"m 39 931 l 960 931 q 1018 851 1018 917 l 1018 221 l 828 104 l 828 813 l 629 813 l 629 231 l 428 96 l 428 813 l 229 813 l 229 74 l 39 -50 l 39 931 z "},"Н":{"ha":803,"x_min":29,"x_max":708,"o":"m 29 944 l 207 944 l 207 610 l 29 497 l 29 944 m 519 944 l 708 944 l 708 49 l 519 49 l 519 486 l 207 292 l 207 -97 l 29 24 l 29 383 l 519 685 l 519 944 z "},"О":{"ha":942,"x_min":14,"x_max":811,"o":"m 14 435 l 75 435 l 75 871 q 131 944 75 917 l 811 944 l 811 125 q 729 36 793 36 l 400 36 l 217 225 l 211 218 l 603 218 l 603 774 l 294 774 l 294 435 l 343 435 l 178 265 l 178 265 l 14 435 z "},"П":{"ha":803,"x_min":28,"x_max":711,"o":"m 28 936 l 711 936 l 711 -143 l 493 39 l 493 789 l 246 789 l 246 54 l 28 54 l 28 936 z "},"Р":{"ha":803,"x_min":31,"x_max":725,"o":"m 31 944 l 660 944 q 725 819 725 911 l 725 471 l 342 231 l 342 451 l 524 569 l 524 776 l 211 776 l 211 24 l 31 -93 l 31 944 z "},"С":{"ha":803,"x_min":31,"x_max":728,"o":"m 31 944 l 651 944 q 728 840 711 944 l 728 601 l 532 601 l 532 778 l 215 778 l 215 183 l 550 183 l 408 17 l 97 17 q 31 107 43 17 l 31 944 z "},"Т":{"ha":882,"x_min":38,"x_max":763,"o":"m 38 944 l 626 944 l 763 775 l 464 775 l 464 50 l 278 -89 l 278 775 l 38 775 l 38 944 z "},"У":{"ha":803,"x_min":28,"x_max":718,"o":"m 28 944 l 218 944 l 218 706 l 422 593 l 422 383 l 28 592 l 28 944 m 518 944 l 718 944 l 718 36 l 144 36 l 261 207 l 518 207 l 518 944 z "},"Ф":{"ha":1140,"x_min":43,"x_max":1039,"o":"m 649 1086 l 649 913 l 1039 913 l 1039 47 l 729 47 l 729 257 l 836 257 l 836 779 l 649 779 l 649 -126 l 440 33 l 440 779 l 251 779 l 251 257 l 360 257 l 360 47 l 43 47 l 43 853 q 69 913 43 901 l 428 913 l 649 1086 z "},"Х":{"ha":803,"x_min":31,"x_max":722,"o":"m 31 944 l 232 944 l 232 647 l 83 522 l 31 572 l 31 944 m 521 944 l 722 944 l 722 610 l 558 475 l 722 343 l 722 26 l 521 26 l 521 261 l 375 385 l 221 263 l 221 26 l 31 26 l 31 336 l 321 572 l 374 538 l 521 674 l 521 944 z "},"Ц":{"ha":813,"x_min":42,"x_max":724,"o":"m 724 1039 l 724 -93 l 518 17 l 518 185 l 231 26 l 42 26 l 42 761 l 233 901 l 233 192 l 518 192 l 518 863 l 724 1039 z "},"Ч":{"ha":803,"x_min":36,"x_max":718,"o":"m 36 943 l 229 943 l 229 679 l 428 563 l 428 342 l 36 572 l 36 943 m 525 943 l 718 943 l 718 -92 l 525 81 l 525 943 z "},"Ш":{"ha":1138,"x_min":39,"x_max":1018,"o":"m 39 1019 l 229 896 l 229 157 l 428 157 l 428 874 l 629 739 l 629 157 l 828 157 l 828 865 l 1018 749 l 1018 119 q 960 39 1018 53 l 39 39 l 39 1019 z "},"Щ":{"ha":1138,"x_min":39,"x_max":1018,"o":"m 840 39 l 39 39 l 39 1019 l 229 896 l 229 157 l 428 157 l 428 874 l 629 739 l 629 157 l 828 157 l 828 865 l 1018 749 l 1018 -100 l 840 -6 l 840 39 z "},"Ъ":{"ha":942,"x_min":14,"x_max":832,"o":"m 135 926 l 135 943 l 357 943 l 356 206 l 660 206 l 660 424 l 474 526 l 474 715 l 832 507 l 832 32 l 163 32 l 163 785 l 14 785 l 135 926 z "},"Ы":{"ha":1107,"x_min":42,"x_max":1011,"o":"m 42 943 l 235 943 l 235 206 l 539 206 l 539 424 l 353 526 l 353 715 l 711 507 l 711 32 l 42 32 l 42 943 m 818 943 l 1011 943 l 1011 6 l 818 -128 l 818 943 z "},"Ь":{"ha":797,"x_min":33,"x_max":703,"o":"m 33 943 l 226 943 l 226 206 l 531 206 l 531 424 l 344 526 l 344 715 l 703 507 l 703 32 l 33 32 l 33 943 z "},"Э":{"ha":796,"x_min":18,"x_max":678,"o":"m 174 936 l 678 936 l 678 111 q 528 26 678 26 l 174 26 l 18 218 l 485 218 l 485 419 l 276 419 l 376 554 l 485 554 l 485 744 l 18 744 l 174 936 z "},"Ю":{"ha":1150,"x_min":28,"x_max":1043,"o":"m 28 944 l 206 944 l 206 597 l 28 494 l 28 944 m 364 390 l 206 292 l 206 -97 l 28 24 l 28 383 l 364 585 l 364 896 q 442 944 388 944 l 1043 944 l 1043 63 q 1021 35 1035 39 l 863 235 l 863 786 l 544 786 l 544 188 l 799 188 l 922 29 l 442 29 q 364 115 364 29 l 364 390 z "},"Я":{"ha":803,"x_min":31,"x_max":725,"o":"m 544 726 l 725 899 l 725 -93 l 544 24 l 544 726 m 651 944 l 471 776 l 232 776 l 232 569 l 408 456 l 350 294 l 31 472 l 31 819 q 96 944 31 911 l 651 944 m 190 146 l 190 -96 l 32 3 l 32 249 l 582 615 l 613 429 l 190 146 z "},"Ѓ":{"ha":754,"x_min":72,"x_max":664,"o":"m 72 944 l 560 944 l 664 763 l 258 763 l 258 19 q 72 -135 244 -4 l 72 944 m 199 1046 l 350 1171 q 372 1187 361 1181 q 393 1196 383 1193 q 401 1197 396 1196 q 413 1199 407 1197 q 429 1192 422 1199 q 436 1178 436 1185 q 430 1159 435 1167 q 414 1144 425 1151 q 405 1138 408 1140 q 368 1125 401 1136 l 193 1058 l 199 1046 z "},"г":{"ha":715,"x_min":26,"x_max":618,"o":"m 26 944 l 514 944 l 618 763 l 213 763 l 213 25 l 26 -131 l 26 944 z "},"Ќ":{"ha":978,"x_min":72,"x_max":768,"o":"m 756 1010 l 756 610 q 540 493 693 581 q 768 333 690 394 l 768 33 l 538 33 l 538 332 q 279 471 413 401 l 279 46 l 72 -51 l 72 839 l 279 935 l 279 494 q 549 644 543 607 l 549 906 l 756 1010 m 417 1046 l 568 1171 q 590 1187 579 1181 q 611 1196 601 1193 q 619 1197 614 1196 q 631 1199 625 1197 q 647 1192 640 1199 q 654 1178 654 1185 q 648 1159 653 1167 q 632 1144 643 1151 q 623 1138 626 1140 q 586 1125 619 1136 l 411 1058 l 417 1046 z "},"к":{"ha":803,"x_min":32,"x_max":728,"o":"m 715 1010 l 715 608 l 500 483 l 728 332 l 728 33 l 497 33 l 497 308 l 239 476 l 239 46 l 32 -51 l 32 839 l 239 935 l 239 490 l 508 629 l 508 906 l 715 1010 z "},"ќ":{"ha":618,"x_min":36,"x_max":732,"o":"m 719 1010 l 719 610 q 504 493 657 581 q 732 333 654 394 l 732 33 l 501 33 l 501 332 q 243 471 376 401 l 243 46 l 36 -51 l 36 839 l 243 935 l 243 494 q 513 644 507 607 l 513 906 l 719 1010 m 386 994 l 517 1157 q 533 1170 525 1165 q 551 1175 542 1175 q 569 1169 563 1175 q 575 1151 575 1163 q 572 1140 575 1144 q 561 1128 569 1135 q 550 1119 557 1124 q 524 1101 543 1114 l 374 1008 l 386 994 z "},"“":{"ha":538,"x_min":111,"x_max":369,"o":"m 111 913 l 172 860 l 172 717 l 111 717 l 111 913 m 308 913 l 369 860 l 369 717 l 308 717 l 308 913 z "},"”":{"ha":538,"x_min":111,"x_max":369,"o":"m 111 944 l 172 944 l 172 801 l 111 749 l 111 944 m 308 944 l 369 944 l 369 801 l 308 749 l 308 944 z "},"‘":{"ha":308,"x_min":100,"x_max":161,"o":"m 100 913 l 161 860 l 161 717 l 100 717 l 100 913 z "},"’":{"ha":308,"x_min":100,"x_max":161,"o":"m 100 944 l 161 944 l 161 801 l 100 749 l 100 944 z "},"„":{"ha":538,"x_min":111,"x_max":369,"o":"m 111 97 l 172 97 l 172 -46 l 111 -99 l 111 97 m 308 97 l 369 97 l 369 -46 l 308 -99 l 308 97 z "},"№":{"ha":1200,"x_min":36,"x_max":1113,"o":"m 915 625 l 1000 625 l 1000 540 l 915 540 l 915 625 m 799 390 l 1113 390 l 1113 306 l 799 306 l 799 390 m 36 943 l 208 943 l 208 769 l 543 474 l 543 943 l 715 943 l 715 29 l 540 29 l 540 236 l 208 524 l 208 29 l 36 29 l 36 943 z "},"Ё":{"ha":783,"x_min":22,"x_max":678,"o":"m 146 1181 l 243 1181 l 243 1114 l 146 1075 l 146 1181 m 403 1181 l 500 1181 l 500 1114 l 403 1075 l 403 1181 m 22 944 l 525 944 l 678 778 l 214 778 l 214 618 l 413 618 l 554 453 l 214 453 l 214 189 l 515 189 l 667 28 l 22 28 l 22 944 z "},"ё":{"ha":783,"x_min":22,"x_max":678,"o":"m 146 1181 l 243 1181 l 243 1114 l 146 1075 l 146 1181 m 403 1181 l 500 1181 l 500 1114 l 403 1075 l 403 1181 m 22 944 l 525 944 l 678 778 l 214 778 l 214 618 l 413 618 l 554 453 l 214 453 l 214 189 l 515 189 l 667 28 l 22 28 l 22 944 z "},"я":{"ha":803,"x_min":31,"x_max":725,"o":"m 544 590 l 544 726 l 725 899 l 725 -93 l 544 24 l 544 385 l 190 146 l 190 -96 l 32 3 l 32 249 l 215 371 l 31 472 l 31 819 q 96 944 31 911 l 651 944 l 471 776 l 232 776 l 232 569 l 375 476 l 544 590 z "},"а":{"ha":803,"x_min":33,"x_max":726,"o":"m 33 943 l 667 943 q 724 850 726 926 l 724 28 l 535 28 l 535 492 l 222 332 l 222 -89 l 33 19 l 33 413 l 535 683 l 535 796 l 222 796 l 222 624 l 33 521 l 33 943 z "},"б":{"ha":797,"x_min":103,"x_max":778,"o":"m 103 944 l 593 944 l 743 776 l 357 776 l 357 721 l 778 485 l 778 58 l 393 58 l 393 228 l 583 228 l 583 393 l 297 561 l 297 13 l 103 -160 l 103 944 z "},"в":{"ha":813,"x_min":39,"x_max":721,"o":"m 39 943 l 635 943 q 721 883 697 943 l 721 611 l 564 492 l 721 400 l 721 28 l 329 28 l 329 189 l 538 189 l 538 389 l 222 510 l 222 22 l 39 -89 l 39 943 m 222 783 l 222 482 l 538 635 l 538 783 l 222 783 z "},"д":{"ha":819,"x_min":36,"x_max":728,"o":"m 544 944 l 728 944 l 728 -78 l 539 65 l 539 751 l 279 604 l 279 207 l 456 207 l 456 28 l 36 28 l 36 207 l 90 207 l 90 721 l 544 944 z "},"е":{"ha":783,"x_min":22,"x_max":678,"o":"m 22 944 l 525 944 l 678 778 l 214 778 l 214 618 l 413 618 l 554 453 l 214 453 l 214 189 l 515 189 l 667 28 l 22 28 l 22 944 z "},"ж":{"ha":1138,"x_min":64,"x_max":1074,"o":"m 900 842 l 1074 935 l 1074 567 l 883 460 l 1074 318 l 1074 33 l 900 33 l 900 265 l 657 453 l 657 72 l 483 -37 l 483 433 l 250 244 l 250 35 l 64 35 l 64 296 l 257 453 l 67 546 l 67 935 l 240 822 l 240 592 l 483 458 l 483 760 l 657 861 l 657 449 l 900 600 l 900 842 z "},"з":{"ha":803,"x_min":14,"x_max":701,"o":"m 139 944 l 551 944 q 701 860 701 944 l 701 589 l 596 475 l 701 375 l 701 106 q 599 32 701 32 l 14 32 l 106 213 l 507 213 l 507 392 l 335 479 l 507 586 l 507 774 l 32 774 l 139 944 z "},"и":{"ha":803,"x_min":29,"x_max":722,"o":"m 722 1049 l 722 26 l 93 26 q 29 85 53 26 l 29 806 l 231 914 l 231 211 l 532 211 l 532 933 l 722 1049 z "},"й":{"ha":803,"x_min":35,"x_max":725,"o":"m 521 1183 l 521 1029 l 300 922 l 300 1068 l 521 1183 m 725 979 l 725 35 l 99 35 q 35 85 58 35 l 35 735 l 244 833 l 244 197 l 535 197 l 535 890 l 725 979 z "},"л":{"ha":803,"x_min":33,"x_max":718,"o":"m 497 944 l 718 944 l 718 -114 l 519 25 l 519 722 l 221 521 l 221 26 l 33 26 l 33 615 l 497 944 z "},"м":{"ha":1138,"x_min":39,"x_max":1018,"o":"m 39 931 l 960 931 q 1018 851 1018 917 l 1018 221 l 828 104 l 828 813 l 629 813 l 629 231 l 428 96 l 428 813 l 229 813 l 229 74 l 39 -50 l 39 931 z "},"н":{"ha":803,"x_min":29,"x_max":708,"o":"m 29 944 l 207 944 l 207 610 l 29 497 l 29 944 m 519 486 l 207 292 l 207 49 l 29 49 l 29 383 l 519 685 l 519 944 l 708 944 l 708 -99 l 519 24 l 519 486 z "},"о":{"ha":803,"x_min":32,"x_max":711,"o":"m 110 944 l 711 944 l 711 63 q 647 29 700 29 l 110 29 q 32 115 32 29 l 32 896 q 110 944 56 944 m 213 786 l 213 188 l 531 188 l 531 786 l 213 786 z "},"п":{"ha":803,"x_min":28,"x_max":711,"o":"m 28 936 l 711 936 l 711 -143 l 493 39 l 493 789 l 246 789 l 246 54 l 28 54 l 28 936 z "},"р":{"ha":803,"x_min":31,"x_max":725,"o":"m 31 944 l 660 944 q 725 819 725 911 l 725 471 l 342 231 l 342 451 l 524 569 l 524 776 l 211 776 l 211 24 l 31 -93 l 31 944 z "},"с":{"ha":803,"x_min":31,"x_max":728,"o":"m 31 944 l 651 944 q 728 840 711 944 l 728 601 l 532 601 l 532 778 l 215 778 l 215 183 l 550 183 l 408 17 l 97 17 q 31 107 43 17 l 31 944 z "},"т":{"ha":833,"x_min":38,"x_max":721,"o":"m 38 944 l 585 944 l 721 775 l 464 775 l 464 50 l 278 -89 l 278 775 l 38 775 l 38 944 z "},"у":{"ha":803,"x_min":28,"x_max":718,"o":"m 28 944 l 218 944 l 218 706 l 422 593 l 422 383 l 28 592 l 28 944 m 518 944 l 718 944 l 718 36 l 144 36 l 261 207 l 518 207 l 518 944 z "},"ф":{"ha":1313,"x_min":31,"x_max":1239,"o":"m 544 776 l 232 776 l 232 568 l 544 392 l 544 776 m 544 188 l 31 472 l 31 819 q 96 944 31 911 l 1174 944 q 1239 819 1239 911 l 1239 472 l 856 256 l 856 451 l 1038 569 l 1038 776 l 725 776 l 725 24 l 544 -93 l 544 188 z "},"х":{"ha":803,"x_min":31,"x_max":722,"o":"m 31 944 l 232 944 l 232 647 l 83 522 l 31 572 l 31 944 m 521 944 l 722 944 l 722 610 l 558 475 l 722 343 l 722 26 l 521 26 l 521 261 l 375 385 l 221 263 l 221 26 l 31 26 l 31 336 l 321 572 l 374 538 l 521 674 l 521 944 z "},"ц":{"ha":813,"x_min":42,"x_max":724,"o":"m 724 1039 l 724 -93 l 518 17 l 518 185 l 231 26 l 42 26 l 42 761 l 233 901 l 233 192 l 518 192 l 518 863 l 724 1039 z "},"ч":{"ha":803,"x_min":36,"x_max":718,"o":"m 36 943 l 229 943 l 229 679 l 428 563 l 428 342 l 36 572 l 36 943 m 525 943 l 718 943 l 718 -92 l 525 81 l 525 943 z "},"ш":{"ha":1138,"x_min":39,"x_max":1018,"o":"m 39 1019 l 229 896 l 229 157 l 428 157 l 428 874 l 629 739 l 629 157 l 828 157 l 828 865 l 1018 749 l 1018 119 q 960 39 1018 53 l 39 39 l 39 1019 z "},"щ":{"ha":1138,"x_min":39,"x_max":1018,"o":"m 840 39 l 39 39 l 39 1019 l 229 896 l 229 157 l 428 157 l 428 874 l 629 739 l 629 157 l 828 157 l 828 865 l 1018 749 l 1018 -100 l 840 -6 l 840 39 z "},"ъ":{"ha":942,"x_min":14,"x_max":832,"o":"m 135 926 l 135 943 l 357 943 l 357 785 l 356 785 l 356 206 l 660 206 l 660 424 l 474 526 l 474 715 l 832 507 l 832 32 l 163 32 l 163 785 l 14 785 l 135 926 z "},"ы":{"ha":1107,"x_min":42,"x_max":1011,"o":"m 42 943 l 235 943 l 235 206 l 539 206 l 539 424 l 353 526 l 353 715 l 711 507 l 711 32 l 42 32 l 42 943 m 818 943 l 1011 943 l 1011 6 l 818 -128 l 818 943 z "},"ь":{"ha":797,"x_min":33,"x_max":703,"o":"m 33 943 l 226 943 l 226 206 l 531 206 l 531 424 l 344 526 l 344 715 l 703 507 l 703 32 l 33 32 l 33 943 z "},"э":{"ha":796,"x_min":18,"x_max":678,"o":"m 174 936 l 678 936 l 678 111 q 528 26 678 26 l 174 26 l 18 218 l 485 218 l 485 419 l 276 419 l 376 554 l 485 554 l 485 744 l 18 744 l 174 936 z "},"ю":{"ha":1150,"x_min":28,"x_max":1043,"o":"m 28 944 l 206 944 l 206 597 l 28 494 l 28 944 m 364 390 l 206 292 l 206 -97 l 28 24 l 28 383 l 364 585 l 364 896 q 442 944 388 944 l 1043 944 l 1043 63 q 1021 35 1035 39 l 863 235 l 863 786 l 544 786 l 544 188 l 799 188 l 922 29 l 442 29 q 364 115 364 29 l 364 390 z "}}}
